<?xml version="1.0" encoding="UTF-8"?>
<svg width="73px" height="23px" viewBox="0 0 73 23" version="1.1" xmlns="http://www.w3.org/2000/svg" xmlns:xlink="http://www.w3.org/1999/xlink">
    <!-- Generator: Sketch 49 (51002) - http://www.bohemiancoding.com/sketch -->
    <title>pagarme</title>
    <desc>Created with Sketch.</desc>
    <defs></defs>
    <g id="Page-1" stroke="none" stroke-width="1" fill="none" fill-rule="evenodd">
        <g id="pagarme" transform="translate(-1.000000, -1.000000)" fill="#93C649" fill-rule="nonzero">
            <g id="Group-2">
                <g id="Group" transform="translate(0.750000, 0.781250)">
                    <path d="M5.169,16.0984375 L5.169,14.3546875 C5.169,13.3203125 4.68225,12.8945312 3.80625,12.8945312 C3.3975,12.8945312 3.00825,12.9554687 2.697,13.0773437 L2.697,17.2335937 C3.00825,17.4164062 3.378,17.5171875 3.80625,17.5171875 C4.70175,17.5171875 5.169,17.071875 5.169,16.0984375 Z M3.86475,10.6445312 C6.1035,10.6445312 7.641,12.04375 7.641,14.415625 L7.641,16.0578125 C7.641,18.3289062 6.21975,19.7273437 4.176,19.7273437 C3.65025,19.7273437 3.10575,19.6054687 2.7165,19.44375 L2.7165,22.3632812 C2.7165,22.5664062 2.619,22.6671875 2.44425,22.6671875 L0.5565,22.6671875 C0.3615,22.6671875 0.26475,22.565625 0.26475,22.3632812 L0.26475,11.5765625 C0.26475,11.4140625 0.32325,11.3132812 0.4785,11.2523437 C1.45125,10.8875 2.775,10.6445312 3.86475,10.6445312 Z" id="Shape"></path>
                    <path d="M12.3705,17.659375 C12.74025,17.659375 13.1685,17.5984375 13.46025,17.5171875 L13.46025,16.0570313 C13.149,15.9960938 12.70125,15.9554687 12.351,15.9554687 C11.475,15.9554687 11.08575,16.259375 11.08575,16.7867188 C11.10525,17.3960938 11.6115,17.659375 12.3705,17.659375 Z M12.4095,10.6445312 C14.60925,10.6445312 15.91275,11.840625 15.91275,14.375 L15.91275,18.9367188 C15.91275,19.0992188 15.83475,19.2203125 15.6795,19.2609375 C14.745,19.5648438 13.47975,19.7476563 12.39,19.7476563 C10.0935,19.7476563 8.63325,18.8554688 8.63325,16.8890625 C8.63325,15.165625 9.9375,14.29375 12.11775,14.29375 C12.6045,14.29375 13.07175,14.334375 13.4805,14.3953125 L13.4805,14.2328125 C13.4805,13.3609375 13.16925,12.8742187 12.13725,12.8742187 C11.43675,12.8742187 10.59975,13.0773437 10.1325,13.340625 C9.996,13.421875 9.82125,13.4015625 9.74325,13.2390625 L9.08175,11.9414062 C9.00375,11.7789062 9.00375,11.6578125 9.12075,11.5765625 C9.879,11.05 11.028,10.6445312 12.4095,10.6445312 Z" id="Shape"></path>
                    <path d="M21.11025,17.1117188 C21.5775,17.1117188 22.00575,17.0101563 22.2195,16.828125 L22.2195,13.0570313 C21.98625,12.9554687 21.5385,12.8945312 21.14925,12.8945312 C20.29275,12.8945312 19.767,13.259375 19.767,14.3140625 L19.767,15.7742188 C19.7865,16.746875 20.31225,17.1117188 21.11025,17.1117188 Z M20.877,22.8703125 C19.55325,22.8703125 18.61875,22.5867187 17.724,21.978125 C17.5875,21.8765625 17.568,21.7351562 17.6655,21.5726562 L18.5025,20.234375 C18.6,20.0921875 18.71625,20.0515625 18.87225,20.153125 C19.3785,20.4773437 20.0595,20.7007812 20.7795,20.7007812 C21.792,20.7007812 22.2975,20.2953125 22.278,19.0789062 C21.83025,19.2210937 21.2655,19.321875 20.799,19.321875 C18.73575,19.321875 17.3145,18.0242187 17.3145,15.753125 L17.3145,14.3945312 C17.3145,11.7992188 18.969,10.64375 21.14925,10.64375 C22.3365,10.64375 23.52375,10.9273438 24.47775,11.3125 C24.61425,11.3734375 24.6915,11.4953125 24.6915,11.6570313 L24.6915,18.6929687 C24.672,21.5320312 23.54325,22.8703125 20.877,22.8703125 Z" id="Shape"></path>
                    <path d="M29.6355,17.659375 C30.00525,17.659375 30.4335,17.5984375 30.72525,17.5171875 L30.72525,16.0570313 C30.414,15.9960938 29.96625,15.9554687 29.616,15.9554687 C28.74,15.9554687 28.35075,16.259375 28.35075,16.7867188 C28.35075,17.3960938 28.857,17.659375 29.6355,17.659375 Z M29.655,10.6445312 C31.85475,10.6445312 33.15825,11.840625 33.15825,14.375 L33.15825,18.9367188 C33.15825,19.0992188 33.08025,19.2203125 32.925,19.2609375 C31.9905,19.5648438 30.72525,19.7476563 29.6355,19.7476563 C27.339,19.7476563 25.87875,18.8554688 25.87875,16.8890625 C25.87875,15.165625 27.183,14.29375 29.36325,14.29375 C29.85,14.29375 30.31725,14.334375 30.726,14.3953125 L30.726,14.2328125 C30.726,13.3609375 30.41475,12.8742187 29.38275,12.8742187 C28.68225,12.8742187 27.84525,13.0773437 27.378,13.340625 C27.2415,13.421875 27.06675,13.4015625 26.98875,13.2390625 L26.32725,11.9414062 C26.24925,11.7789062 26.24925,11.6578125 26.36625,11.5765625 C27.1245,11.05 28.293,10.6445312 29.655,10.6445312 Z" id="Shape"></path>
                    <path d="M35.08575,19.5046875 C34.89075,19.5046875 34.794,19.403125 34.794,19.2007812 L34.794,11.6585938 C34.794,11.5164063 34.8525,11.3953125 35.00775,11.3140625 C35.88375,10.8679688 36.915,10.625 37.947,10.625 C38.43375,10.625 38.9205,10.6859375 39.504,10.7875 C39.6795,10.828125 39.75675,10.9296875 39.75675,11.1117188 L39.75675,12.6320313 C39.75675,12.8351563 39.63975,12.9359375 39.4455,12.8953125 C39.13425,12.8546875 38.784,12.834375 38.4525,12.834375 C37.96575,12.834375 37.5375,12.915625 37.24575,13.0570313 L37.24575,19.2007812 C37.24575,19.4039062 37.14825,19.5046875 36.9735,19.5046875 L35.08575,19.5046875 Z" id="Shape"></path>
                    <path d="M41.3925,19.4640625 L39.8745,18.3492187 C39.7185,18.2273437 39.7185,17.984375 39.8745,17.8625 L41.3925,16.7476563 C41.5875,16.6054688 41.84025,16.7476563 41.84025,16.990625 L41.84025,19.2210938 C41.84025,19.4640625 41.58675,19.60625 41.3925,19.4640625 Z" id="Shape"></path>
                    <path d="M51.41625,10.6445312 C53.5185,10.6445312 54.978,11.9421875 54.978,14.29375 L54.978,19.2210937 C54.978,19.4242187 54.8805,19.525 54.70575,19.525 L52.85625,19.525 C52.66125,19.525 52.5645,19.4234375 52.5645,19.2210937 L52.5645,14.2132812 C52.5645,13.4023437 52.17525,12.915625 51.33825,12.915625 C50.988,12.915625 50.63775,12.996875 50.307,13.1789062 C50.424,13.503125 50.463,13.8679687 50.463,14.253125 L50.463,19.2 C50.463,19.403125 50.3655,19.5039062 50.19075,19.5039062 L48.34125,19.5039062 C48.14625,19.5039062 48.0495,19.4023438 48.0495,19.2 L48.0495,14.1921875 C48.0495,13.3203125 47.66025,12.8742187 46.88175,12.8742187 C46.551,12.8742187 46.20075,12.9351562 45.94725,13.0164062 L45.94725,19.1804687 C45.94725,19.3835937 45.83025,19.484375 45.6555,19.484375 L43.806,19.484375 C43.611,19.484375 43.51425,19.3828125 43.51425,19.1804687 L43.51425,11.6585937 C43.51425,11.4960937 43.57275,11.375 43.728,11.29375 C44.6625,10.8882812 45.81075,10.6453125 46.842,10.6453125 C47.679,10.6453125 48.399,10.8882812 49.02225,11.334375 C49.85925,10.8875 50.55975,10.6445312 51.41625,10.6445312 Z" id="Shape"></path>
                    <path d="M60.0975,12.753125 C59.358,12.753125 58.87125,13.1585937 58.87125,14.0710937 L58.87125,14.415625 L61.32375,14.415625 L61.32375,14.0710937 C61.32375,13.1585937 60.81825,12.753125 60.0975,12.753125 Z M63.699,15.7742187 C63.699,15.9570312 63.582,16.0578125 63.38775,16.0578125 L58.872,16.0578125 L58.872,16.3210937 C58.872,17.1726563 59.39775,17.5984375 60.25425,17.5984375 C61.05225,17.5984375 61.71375,17.3554688 62.2785,16.9898437 C62.415,16.8679687 62.55075,16.9085938 62.64825,17.0507812 L63.48525,18.20625 C63.58275,18.3484375 63.58275,18.5101563 63.44625,18.6320313 C62.62875,19.2804688 61.5975,19.7265625 60.19575,19.7265625 C58.113,19.7265625 56.439,18.5710938 56.439,16.259375 L56.439,14.171875 C56.439,11.6984375 58.113,10.6234375 60.13725,10.6234375 C62.103,10.6234375 63.699,11.6578125 63.699,14.171875 L63.699,15.7742187 Z" id="Shape"></path>
                    <polygon id="Shape" points="64.185 0.5671875 66.13125 0.5671875 66.13125 2.59453125 64.185 2.59453125"></polygon>
                    <polygon id="Shape" points="66.657 0.5671875 68.60325 0.5671875 68.60325 2.59453125 66.657 2.59453125"></polygon>
                    <polygon id="Shape" points="69.1095 0.5671875 71.05575 0.5671875 71.05575 2.59453125 69.1095 2.59453125"></polygon>
                    <polygon id="Shape" points="71.5815 0.5671875 73.236 0.5671875 73.236 2.59453125 71.5815 2.59453125"></polygon>
                    <polygon id="Shape" points="64.185 3.1421875 66.13125 3.1421875 66.13125 5.16953125 64.185 5.16953125"></polygon>
                    <polygon id="Shape" points="64.185 5.696875 66.13125 5.696875 66.13125 7.72421875 64.185 7.72421875"></polygon>
                    <polygon id="Shape" points="64.185 8.271875 66.13125 8.271875 66.13125 9.9953125 64.185 9.9953125"></polygon>
                    <path d="M66.6375,5.696875 L66.6375,9.9953125 L68.58375,9.9953125 L68.58375,7.72421875 L71.05575,7.72421875 L71.05575,3.1421875 L66.6375,3.1421875 L66.6375,5.16953125 L68.01975,5.16953125 L69.246,4.27734375 C69.3435,4.19609375 69.49875,4.19609375 69.59625,4.25703125 C69.71325,4.31796875 69.79125,4.43984375 69.79125,4.58125 L69.79125,6.325 C69.79125,6.4671875 69.71325,6.58828125 69.59625,6.64921875 C69.47925,6.71015625 69.3435,6.71015625 69.2265,6.62890625 L68.01975,5.69609375 C67.68975,5.696875 66.6375,5.696875 66.6375,5.696875 Z" id="Shape"></path>
                    <polygon id="Shape" points="71.5815 3.1421875 73.236 3.1421875 73.236 5.16953125 71.5815 5.16953125"></polygon>
                    <polygon id="Shape" points="71.5815 5.696875 73.236 5.696875 73.236 7.72421875 71.5815 7.72421875"></polygon>
                    <polygon id="Shape" points="69.1095 8.271875 71.05575 8.271875 71.05575 9.9953125 69.1095 9.9953125"></polygon>
                    <polygon id="Shape" points="71.5815 8.271875 73.236 8.271875 73.236 9.9953125 71.5815 9.9953125"></polygon>
                </g>
            </g>
        </g>
    </g>
</svg>